<svg width="30" height="30" viewBox="0 0 30 30" fill="none" xmlns="http://www.w3.org/2000/svg">
<path d="M15.7514 26.3749C16.3382 26.8955 17.0519 27.252 17.8206 27.4086C18.5892 27.5652 19.3856 27.5163 20.1293 27.2667C20.873 27.0172 21.5377 26.5759 22.0563 25.9874C22.575 25.3989 22.9293 24.6841 23.0833 23.9149L23.1389 23.6359C24.1291 23.4265 25.0295 22.9138 25.7151 22.1692C26.4006 21.4245 26.8372 20.4848 26.9642 19.4807C27.0912 18.4765 26.9023 17.4577 26.4238 16.5659C25.9452 15.674 25.2008 14.9533 24.2938 14.5039C24.6744 14.1528 24.9782 13.7268 25.186 13.2525C25.3939 12.7783 25.5012 12.2662 25.5014 11.7484V11.4514C25.5009 10.5159 25.1766 9.60932 24.5835 8.88579C23.9904 8.16227 23.1651 7.66639 22.2479 7.4824L21.6389 7.3624L21.4499 6.4204C21.3304 5.82294 21.0626 5.26511 20.6712 4.79818C20.2798 4.33126 19.7773 3.97022 19.2099 3.74827C18.6425 3.52632 18.0283 3.45058 17.424 3.52802C16.8197 3.60545 16.2445 3.83357 15.7514 4.1914V26.3749ZM14.2514 4.1899C13.7582 3.83172 13.1829 3.60331 12.5784 3.52569C11.9738 3.44807 11.3595 3.52373 10.7918 3.7457C10.2242 3.96768 9.72147 4.32885 9.32996 4.79598C8.93845 5.26311 8.6707 5.8212 8.55135 6.4189L8.36385 7.3609L7.75485 7.4824C6.83758 7.66639 6.01229 8.16227 5.4192 8.88579C4.82611 9.60932 4.50179 10.5159 4.50135 11.4514V11.7484C4.50135 12.8374 4.96635 13.8184 5.70885 14.5039C4.80193 14.9533 4.05749 15.674 3.57895 16.5659C3.1004 17.4577 2.91151 18.4765 3.03851 19.4807C3.16552 20.4848 3.60211 21.4245 4.28764 22.1692C4.97317 22.9138 5.8736 23.4265 6.86385 23.6359L6.91935 23.9134C7.07324 24.6827 7.42734 25.3977 7.94592 25.9864C8.4645 26.5751 9.12919 27.0166 9.87292 27.2663C10.6166 27.5159 11.4131 27.565 12.1818 27.4085C12.9506 27.252 13.6644 26.8955 14.2514 26.3749V4.1899Z" fill="#7D23E0"/>
</svg>
