<svg width="26" height="25" viewBox="0 0 26 25" fill="none" xmlns="http://www.w3.org/2000/svg">
<path d="M3.76923 12.5H4.79487M13 3.26923V4.29487M21.2051 12.5H22.2308M6.43589 5.93589L7.15384 6.65384M19.5641 5.93589L18.8461 6.65384M10.641 17.6282H15.359M9.92307 16.6026C9.06202 15.9568 8.42598 15.0564 8.10505 14.0291C7.78413 13.0017 7.79459 11.8994 8.13495 10.8783C8.47532 9.85723 9.12832 8.96911 10.0015 8.33978C10.8746 7.71044 11.9237 7.37179 13 7.37179C14.0763 7.37179 15.1254 7.71044 15.9985 8.33978C16.8717 8.96911 17.5247 9.85723 17.865 10.8783C18.2054 11.8994 18.2159 13.0017 17.8949 14.0291C17.574 15.0564 16.938 15.9568 16.0769 16.6026C15.6765 16.999 15.375 17.484 15.1968 18.0186C15.0186 18.5531 14.9688 19.1221 15.0513 19.6795C15.0513 20.2235 14.8352 20.7453 14.4505 21.13C14.0658 21.5146 13.544 21.7308 13 21.7308C12.456 21.7308 11.9342 21.5146 11.5495 21.13C11.1648 20.7453 10.9487 20.2235 10.9487 19.6795C11.0312 19.1221 10.9814 18.5531 10.8032 18.0186C10.625 17.484 10.3235 16.999 9.92307 16.6026Z" stroke="#C9A2F3" stroke-width="2.66667" stroke-linecap="round" stroke-linejoin="round"/>
</svg>
