<svg width="24" height="25" viewBox="0 0 24 25" fill="none" xmlns="http://www.w3.org/2000/svg">
<path d="M4 19.5C3.45 19.5 2.97933 19.3043 2.588 18.913C2.19667 18.5217 2.00067 18.0507 2 17.5V7.5C2 6.95 2.196 6.47933 2.588 6.088C2.98 5.69667 3.45067 5.50067 4 5.5H20C20.55 5.5 21.021 5.696 21.413 6.088C21.805 6.48 22.0007 6.95067 22 7.5V17.5C22 18.05 21.8043 18.521 21.413 18.913C21.0217 19.305 20.5507 19.5007 20 19.5H4ZM9 16.5H15C15.2833 16.5 15.521 16.404 15.713 16.212C15.905 16.02 16.0007 15.7827 16 15.5C15.9993 15.2173 15.9033 14.98 15.712 14.788C15.5207 14.596 15.2833 14.5 15 14.5H9C8.71667 14.5 8.47933 14.596 8.288 14.788C8.09667 14.98 8.00067 15.2173 8 15.5C7.99933 15.7827 8.09533 16.0203 8.288 16.213C8.48067 16.4057 8.718 16.5013 9 16.5ZM6 10.5C6.28333 10.5 6.521 10.404 6.713 10.212C6.905 10.02 7.00067 9.78267 7 9.5C6.99933 9.21733 6.90333 8.98 6.712 8.788C6.52067 8.596 6.28333 8.5 6 8.5C5.71667 8.5 5.47933 8.596 5.288 8.788C5.09667 8.98 5.00067 9.21733 5 9.5C4.99933 9.78267 5.09533 10.0203 5.288 10.213C5.48067 10.4057 5.718 10.5013 6 10.5ZM9 10.5C9.28333 10.5 9.521 10.404 9.713 10.212C9.905 10.02 10.0007 9.78267 10 9.5C9.99933 9.21733 9.90333 8.98 9.712 8.788C9.52067 8.596 9.28333 8.5 9 8.5C8.71667 8.5 8.47933 8.596 8.288 8.788C8.09667 8.98 8.00067 9.21733 8 9.5C7.99933 9.78267 8.09533 10.0203 8.288 10.213C8.48067 10.4057 8.718 10.5013 9 10.5ZM12 10.5C12.2833 10.5 12.521 10.404 12.713 10.212C12.905 10.02 13.0007 9.78267 13 9.5C12.9993 9.21733 12.9033 8.98 12.712 8.788C12.5207 8.596 12.2833 8.5 12 8.5C11.7167 8.5 11.4793 8.596 11.288 8.788C11.0967 8.98 11.0007 9.21733 11 9.5C10.9993 9.78267 11.0953 10.0203 11.288 10.213C11.4807 10.4057 11.718 10.5013 12 10.5ZM15 10.5C15.2833 10.5 15.521 10.404 15.713 10.212C15.905 10.02 16.0007 9.78267 16 9.5C15.9993 9.21733 15.9033 8.98 15.712 8.788C15.5207 8.596 15.2833 8.5 15 8.5C14.7167 8.5 14.4793 8.596 14.288 8.788C14.0967 8.98 14.0007 9.21733 14 9.5C13.9993 9.78267 14.0953 10.0203 14.288 10.213C14.4807 10.4057 14.718 10.5013 15 10.5ZM18 10.5C18.2833 10.5 18.521 10.404 18.713 10.212C18.905 10.02 19.0007 9.78267 19 9.5C18.9993 9.21733 18.9033 8.98 18.712 8.788C18.5207 8.596 18.2833 8.5 18 8.5C17.7167 8.5 17.4793 8.596 17.288 8.788C17.0967 8.98 17.0007 9.21733 17 9.5C16.9993 9.78267 17.0953 10.0203 17.288 10.213C17.4807 10.4057 17.718 10.5013 18 10.5ZM6 13.5C6.28333 13.5 6.521 13.404 6.713 13.212C6.905 13.02 7.00067 12.7827 7 12.5C6.99933 12.2173 6.90333 11.98 6.712 11.788C6.52067 11.596 6.28333 11.5 6 11.5C5.71667 11.5 5.47933 11.596 5.288 11.788C5.09667 11.98 5.00067 12.2173 5 12.5C4.99933 12.7827 5.09533 13.0203 5.288 13.213C5.48067 13.4057 5.718 13.5013 6 13.5ZM9 13.5C9.28333 13.5 9.521 13.404 9.713 13.212C9.905 13.02 10.0007 12.7827 10 12.5C9.99933 12.2173 9.90333 11.98 9.712 11.788C9.52067 11.596 9.28333 11.5 9 11.5C8.71667 11.5 8.47933 11.596 8.288 11.788C8.09667 11.98 8.00067 12.2173 8 12.5C7.99933 12.7827 8.09533 13.0203 8.288 13.213C8.48067 13.4057 8.718 13.5013 9 13.5ZM12 13.5C12.2833 13.5 12.521 13.404 12.713 13.212C12.905 13.02 13.0007 12.7827 13 12.5C12.9993 12.2173 12.9033 11.98 12.712 11.788C12.5207 11.596 12.2833 11.5 12 11.5C11.7167 11.5 11.4793 11.596 11.288 11.788C11.0967 11.98 11.0007 12.2173 11 12.5C10.9993 12.7827 11.0953 13.0203 11.288 13.213C11.4807 13.4057 11.718 13.5013 12 13.5ZM15 13.5C15.2833 13.5 15.521 13.404 15.713 13.212C15.905 13.02 16.0007 12.7827 16 12.5C15.9993 12.2173 15.9033 11.98 15.712 11.788C15.5207 11.596 15.2833 11.5 15 11.5C14.7167 11.5 14.4793 11.596 14.288 11.788C14.0967 11.98 14.0007 12.2173 14 12.5C13.9993 12.7827 14.0953 13.0203 14.288 13.213C14.4807 13.4057 14.718 13.5013 15 13.5ZM18 13.5C18.2833 13.5 18.521 13.404 18.713 13.212C18.905 13.02 19.0007 12.7827 19 12.5C18.9993 12.2173 18.9033 11.98 18.712 11.788C18.5207 11.596 18.2833 11.5 18 11.5C17.7167 11.5 17.4793 11.596 17.288 11.788C17.0967 11.98 17.0007 12.2173 17 12.5C16.9993 12.7827 17.0953 13.0203 17.288 13.213C17.4807 13.4057 17.718 13.5013 18 13.5Z" fill="#C9A2F3"/>
</svg>
