<svg width="30" height="30" viewBox="0 0 30 30" fill="none" xmlns="http://www.w3.org/2000/svg">
<path fill-rule="evenodd" clip-rule="evenodd" d="M9.40877 5.4086C10.9712 5.00605 12.6144 5.04326 14.157 5.51612C15.6996 5.98898 17.0814 6.87909 18.1498 8.08808C19.2182 9.29708 19.9316 10.7779 20.2111 12.3669C20.4906 13.956 20.3254 15.5913 19.7338 17.0923L25.4825 21.9586C25.9185 22.327 26.2733 22.782 26.5244 23.2946C26.7755 23.8072 26.9175 24.3664 26.9414 24.9367C26.9652 25.5071 26.8705 26.0761 26.6631 26.608C26.4557 27.1398 26.1401 27.6228 25.7365 28.0264C25.3328 28.4299 24.8497 28.7454 24.3179 28.9526C23.786 29.1599 23.2169 29.2546 22.6466 29.2306C22.0763 29.2066 21.5171 29.0645 21.0046 28.8133C20.492 28.562 20.0371 28.2072 19.6688 27.7711L14.805 22.0248C13.3038 22.6175 11.668 22.7834 10.0783 22.5044C8.48868 22.2253 7.00718 21.512 5.79762 20.4435C4.58806 19.3749 3.69756 17.9927 3.22457 16.4496C2.75158 14.9065 2.71453 13.2627 3.11752 11.6998C3.17434 11.4803 3.28927 11.28 3.45023 11.1202C3.61119 10.9604 3.81223 10.8469 4.03222 10.7916C4.25221 10.7364 4.48303 10.7414 4.7004 10.8062C4.91778 10.871 5.11368 10.9932 5.26752 11.1598L9.07377 15.2936L11.945 14.2373L13.0038 11.3623L8.86752 7.56235C8.69984 7.40856 8.57683 7.21231 8.51151 6.99437C8.44619 6.77642 8.44098 6.54487 8.49643 6.32421C8.55189 6.10354 8.66595 5.90197 8.82654 5.74079C8.98714 5.57962 9.1883 5.46484 9.40877 5.4086Z" fill="#7D23E0"/>
</svg>
