<svg width="30" height="30" viewBox="0 0 30 30" fill="none" xmlns="http://www.w3.org/2000/svg">
<path d="M23.8373 15.0125C24 15.0355 24.1567 15.0904 24.2982 15.1739C24.4397 15.2575 24.5633 15.3682 24.662 15.4996C24.7607 15.6311 24.8325 15.7807 24.8733 15.9399C24.9141 16.0991 24.9231 16.2648 24.8998 16.4275C24.5865 18.595 23.5706 20.5999 22.0081 22.1344C20.4455 23.669 18.4226 24.6484 16.2498 24.9225V26.25C16.2498 26.5815 16.1181 26.8995 15.8837 27.1339C15.6493 27.3683 15.3313 27.5 14.9998 27.5C14.6683 27.5 14.3503 27.3683 14.1159 27.1339C13.8815 26.8995 13.7498 26.5815 13.7498 26.25V24.9225C11.5773 24.648 9.55476 23.6683 7.99251 22.1339C6.43025 20.5994 5.4145 18.5948 5.10105 16.4275C5.05397 16.0993 5.1392 15.7658 5.33799 15.5005C5.53678 15.2351 5.83284 15.0596 6.16105 15.0125C6.48925 14.9654 6.82272 15.0507 7.08808 15.2494C7.35345 15.4482 7.52897 15.7443 7.57605 16.0725C7.83457 17.857 8.72723 19.4886 10.0906 20.6687C11.4539 21.8488 13.1967 22.4983 14.9998 22.4983C16.8029 22.4983 18.5457 21.8488 19.909 20.6687C21.2724 19.4886 22.165 17.857 22.4235 16.0725C22.4468 15.91 22.5019 15.7536 22.5856 15.6124C22.6694 15.4712 22.7801 15.3478 22.9115 15.2494C23.0429 15.151 23.1924 15.0794 23.3514 15.0387C23.5105 14.9981 23.6748 14.9892 23.8373 15.0125ZM14.9998 2.5C16.0235 2.5 16.9898 2.74625 17.8423 3.1825C17.2765 3.58049 16.8318 4.12724 16.5574 4.76227C16.283 5.39729 16.1896 6.09585 16.2875 6.78065C16.3855 7.46546 16.6709 8.10983 17.1123 8.64249C17.5537 9.17514 18.1339 9.57532 18.7885 9.79875L19.261 9.96125C19.4416 10.0228 19.6056 10.1249 19.7406 10.2597C19.8756 10.3945 19.9779 10.5583 20.0398 10.7387L20.201 11.2112C20.4135 11.8362 20.781 12.3763 21.2498 12.795V15C21.2498 16.6576 20.5913 18.2473 19.4192 19.4194C18.2471 20.5915 16.6574 21.25 14.9998 21.25C13.3422 21.25 11.7525 20.5915 10.5804 19.4194C9.40828 18.2473 8.7498 16.6576 8.7498 15V8.75C8.7498 7.0924 9.40828 5.50269 10.5804 4.33058C11.7525 3.15848 13.3422 2.5 14.9998 2.5ZM23.7498 1.25C23.9836 1.25 24.2128 1.3156 24.4112 1.43934C24.6097 1.56308 24.7694 1.74 24.8723 1.95L24.9323 2.09625L25.0948 2.56875C25.2663 3.07148 25.5426 3.53204 25.9055 3.91993C26.2684 4.30782 26.7096 4.61419 27.1998 4.81875L27.431 4.90625L27.9035 5.0675C28.1375 5.14733 28.3426 5.29475 28.4928 5.49112C28.643 5.68749 28.7316 5.924 28.7474 6.17072C28.7632 6.41745 28.7054 6.66331 28.5815 6.87723C28.4576 7.09114 28.273 7.2635 28.051 7.3725L27.9035 7.4325L27.431 7.595C26.9283 7.7665 26.4678 8.04285 26.0799 8.40574C25.692 8.76863 25.3856 9.20979 25.181 9.7L25.0936 9.93125L24.9323 10.4037C24.8523 10.6377 24.7048 10.8426 24.5084 10.9927C24.3119 11.1428 24.0754 11.2312 23.8287 11.2469C23.5819 11.2625 23.3361 11.2047 23.1223 11.0807C22.9084 10.9566 22.7362 10.7719 22.6273 10.55L22.5673 10.4037L22.4048 9.93125C22.2333 9.42852 21.9569 8.96796 21.5941 8.58007C21.2312 8.19218 20.79 7.88581 20.2998 7.68125L20.0685 7.59375L19.596 7.4325C19.3621 7.35267 19.157 7.20525 19.0068 7.00888C18.8566 6.81251 18.768 6.576 18.7522 6.32928C18.7364 6.08255 18.7942 5.83669 18.9181 5.62277C19.042 5.40886 19.2266 5.2365 19.4485 5.1275L19.596 5.0675L20.0685 4.905C20.5713 4.7335 21.0318 4.45715 21.4197 4.09426C21.8076 3.73137 22.114 3.29021 22.3185 2.8L22.406 2.56875L22.5673 2.09625C22.6515 1.84948 22.8108 1.63523 23.0228 1.48349C23.2349 1.33174 23.4891 1.2501 23.7498 1.25Z" fill="#7D23E0"/>
</svg>
