<svg width="30" height="30" viewBox="0 0 30 30" fill="none" xmlns="http://www.w3.org/2000/svg">
<g clip-path="url(#clip0_5_531)">
<path d="M25.891 8.91001L25.5835 9.61751C25.5355 9.73271 25.4544 9.83113 25.3505 9.90035C25.2466 9.96957 25.1246 10.0065 24.9998 10.0065C24.8749 10.0065 24.7529 9.96957 24.649 9.90035C24.5451 9.83113 24.4641 9.73271 24.416 9.61751L24.1085 8.91001C23.5679 7.65841 22.5777 6.65491 21.3335 6.09751L20.3848 5.67376C20.2697 5.62081 20.1722 5.53597 20.1038 5.42929C20.0354 5.32262 19.9991 5.19858 19.9991 5.07188C19.9991 4.94519 20.0354 4.82115 20.1038 4.71447C20.1722 4.6078 20.2697 4.52295 20.3848 4.47001L21.281 4.07126C22.5565 3.49798 23.5636 2.45736 24.0948 1.16376L24.4123 0.400009C24.4587 0.281701 24.5397 0.180131 24.6447 0.10854C24.7498 0.0369487 24.8739 -0.00134277 25.001 -0.00134277C25.1281 -0.00134277 25.2523 0.0369487 25.3573 0.10854C25.4623 0.180131 25.5433 0.281701 25.5898 0.400009L25.906 1.16251C26.4366 2.45635 27.4432 3.49742 28.7185 4.07126L29.616 4.47126C29.7308 4.52436 29.8279 4.60919 29.896 4.71573C29.9641 4.82227 30.0003 4.94607 30.0003 5.07251C30.0003 5.19895 29.9641 5.32275 29.896 5.42929C29.8279 5.53583 29.7308 5.62066 29.616 5.67376L28.666 6.09626C27.422 6.65421 26.4324 7.65816 25.8923 8.91001M11.2498 2.50001C13.6781 2.49963 16.0236 3.38289 17.8485 4.98493C19.6735 6.58697 20.8531 8.79832 21.1673 11.2063L23.9798 15.63C24.1648 15.9213 24.1273 16.355 23.6985 16.54L21.2498 17.5875V21.25C21.2498 21.913 20.9864 22.5489 20.5175 23.0178C20.0487 23.4866 19.4128 23.75 18.7498 23.75H16.251L16.2498 27.5H4.99976V22.8825C4.99976 21.4075 4.45476 20.0113 3.44476 18.7513C2.26695 17.2807 1.52856 15.5072 1.31466 13.6353C1.10076 11.7634 1.42004 9.8691 2.23573 8.17071C3.05141 6.47232 4.33032 5.03892 5.9251 4.03565C7.51988 3.03238 9.36565 2.50005 11.2498 2.50001ZM26.4423 22.6275L24.361 21.24C25.5954 19.3933 26.2529 17.2213 26.2498 15C26.2489 14.3608 26.1973 13.7358 26.0948 13.125L28.5235 12.5C28.6735 13.3125 28.7489 14.1458 28.7498 15C28.7498 17.8225 27.8998 20.445 26.4423 22.6275Z" fill="#7D23E0"/>
</g>
<defs>
<clipPath id="clip0_5_531">
<rect width="30" height="30" fill="white"/>
</clipPath>
</defs>
</svg>
