<svg width="12" height="10" viewBox="0 0 12 10" fill="none" xmlns="http://www.w3.org/2000/svg">
<path d="M5.57143 9.59755C5.91021 9.59755 6.1545 9.34834 6.1545 9.01448V1.06598C6.1545 0.732125 5.91021 0.453125 5.56157 0.453125C5.31729 0.453125 5.15293 0.562625 4.88871 0.811839L2.691 2.88998C2.65479 2.92024 2.60874 2.93618 2.56157 2.93477H1.08129C0.378857 2.93477 0 3.31834 0 4.06598V5.99948C0 6.74712 0.378643 7.13091 1.0815 7.13091H2.56157C2.61129 7.13091 2.65607 7.14591 2.691 7.1757L4.88871 9.27355C5.12786 9.49791 5.32714 9.59755 5.57143 9.59755ZM10.3905 8.58098C10.5846 8.71041 10.824 8.6607 10.9635 8.46141C11.6214 7.54427 12 6.32348 12 5.04784C12 3.76705 11.6263 2.54605 10.9635 1.62912C10.8191 1.43477 10.5846 1.38484 10.3905 1.51448C10.2011 1.64412 10.1711 1.8882 10.3206 2.10248C10.8639 2.89984 11.1977 3.94641 11.1977 5.04762C11.1977 6.14905 10.8737 7.20548 10.3155 7.99298C10.1762 8.20727 10.2011 8.45155 10.3905 8.58098ZM8.40193 7.23527C8.57143 7.35505 8.8155 7.3152 8.96014 7.12084C9.34886 6.59755 9.58307 5.82998 9.58307 5.04762C9.58307 4.26548 9.34393 3.50284 8.96014 2.9697C8.81571 2.77534 8.57657 2.73548 8.40193 2.85505C8.18271 2.99948 8.15764 3.25362 8.31729 3.47284C8.60636 3.86155 8.78079 4.4547 8.78079 5.04784C8.78079 5.64098 8.5965 6.2337 8.31236 6.62734C8.16279 6.84162 8.18764 7.08591 8.40193 7.23548" fill="#F9F3FF"/>
</svg>
