<svg width="58" height="58" viewBox="0 0 58 58" fill="none" xmlns="http://www.w3.org/2000/svg">
<circle cx="28.7719" cy="28.772" r="28.7719" fill="#DEC8F7"/>
<circle cx="28.7718" cy="28.772" r="21.5789" fill="#7D23E0"/>
<path d="M26.2109 22.8455C27.3501 20.8027 27.9193 19.7813 28.7707 19.7813C29.6222 19.7813 30.1913 20.8027 31.3305 22.8455L31.6255 23.3742C31.9491 23.955 32.111 24.2455 32.3627 24.437C32.6145 24.6285 32.9292 24.6995 33.5586 24.8416L34.1304 24.971C36.3422 25.4719 37.4473 25.7218 37.7107 26.5679C37.9733 27.4131 37.2198 28.2951 35.712 30.0583L35.3217 30.5141C34.8938 31.015 34.6789 31.2658 34.5827 31.5751C34.4865 31.8853 34.5188 32.2198 34.5836 32.8878L34.6429 33.4965C34.8704 35.8495 34.9846 37.0256 34.2958 37.548C33.6071 38.0704 32.5713 37.5938 30.5015 36.6408L29.9648 36.3944C29.3767 36.1229 29.0827 35.988 28.7707 35.988C28.4587 35.988 28.1647 36.1229 27.5767 36.3944L27.0408 36.6408C24.9701 37.5938 23.9344 38.0704 23.2465 37.5489C22.5569 37.0256 22.6711 35.8495 22.8986 33.4965L22.9579 32.8887C23.0226 32.2198 23.055 31.8853 22.9579 31.576C22.8626 31.2658 22.6477 31.015 22.2197 30.515L21.8295 30.0583C20.3217 28.296 19.5682 27.414 19.8308 26.5679C20.0933 25.7218 21.2001 25.471 23.412 24.971L23.9838 24.8416C24.6123 24.6995 24.9261 24.6285 25.1787 24.437C25.4314 24.2455 25.5923 23.955 25.916 23.3742L26.2109 22.8455Z" fill="#FBF7FF"/>
<circle cx="35.5146" cy="42.1684" r="3.14693" fill="#AE64FF"/>
<circle cx="40.5498" cy="37.1333" r="1.88816" fill="#AE64FF"/>
<circle cx="22.0284" cy="14.6566" r="3.14693" transform="rotate(-180 22.0284 14.6566)" fill="#AE64FF"/>
<circle cx="16.9932" cy="19.6916" r="1.88816" transform="rotate(-180 16.9932 19.6916)" fill="#AE64FF"/>
</svg>
