<svg width="10" height="10" viewBox="0 0 10 10" fill="none" xmlns="http://www.w3.org/2000/svg">
<g clip-path="url(#clip0_63_765)">
<path d="M9.31473 7.90496L7.34598 3.96746C7.31092 3.89744 7.25706 3.83856 7.19044 3.79742C7.12382 3.75627 7.04706 3.73447 6.96875 3.73447C6.89044 3.73447 6.81368 3.75627 6.74706 3.79742C6.68044 3.83856 6.62658 3.89744 6.59152 3.96746L5.87012 5.40887C5.3841 5.36638 4.91613 5.20443 4.50781 4.93742C5.00395 4.36037 5.31433 3.64699 5.39832 2.89062H6.125C6.23689 2.89062 6.34419 2.84618 6.42331 2.76706C6.50243 2.68794 6.54688 2.58064 6.54688 2.46875C6.54688 2.35686 6.50243 2.24956 6.42331 2.17044C6.34419 2.09132 6.23689 2.04688 6.125 2.04688H4.29688V1.625C4.29688 1.51311 4.25243 1.40581 4.17331 1.32669C4.09419 1.24757 3.98689 1.20312 3.875 1.20312C3.76311 1.20312 3.65581 1.24757 3.57669 1.32669C3.49757 1.40581 3.45312 1.51311 3.45312 1.625V2.04688H1.625C1.51311 2.04688 1.40581 2.09132 1.32669 2.17044C1.24757 2.24956 1.20312 2.35686 1.20312 2.46875C1.20312 2.58064 1.24757 2.68794 1.32669 2.76706C1.40581 2.84618 1.51311 2.89062 1.625 2.89062H4.54754C4.46838 3.44045 4.23522 3.95663 3.875 4.37949C3.69921 4.17378 3.55252 3.94488 3.43906 3.69922C3.41684 3.64755 3.38451 3.60085 3.34398 3.56186C3.30344 3.52287 3.25552 3.49238 3.20303 3.47218C3.15054 3.45198 3.09454 3.44248 3.03832 3.44424C2.98211 3.446 2.92681 3.45898 2.87568 3.48242C2.82456 3.50586 2.77864 3.53929 2.74062 3.58074C2.7026 3.62218 2.67325 3.67082 2.6543 3.72377C2.63535 3.77673 2.62719 3.83294 2.63028 3.88909C2.63337 3.94525 2.64766 4.00023 2.6723 4.05078C2.8199 4.37172 3.01173 4.6704 3.24219 4.93812C2.76208 5.25415 2.19979 5.42235 1.625 5.42188C1.51311 5.42188 1.40581 5.46632 1.32669 5.54544C1.24757 5.62456 1.20312 5.73186 1.20312 5.84375C1.20312 5.95564 1.24757 6.06294 1.32669 6.14206C1.40581 6.22118 1.51311 6.26562 1.625 6.26562C2.43501 6.26628 3.22379 6.0066 3.875 5.52488C4.34725 5.87242 4.89333 6.1063 5.47074 6.20832L4.62242 7.90496C4.59606 7.95466 4.57989 8.00913 4.57489 8.06516C4.56989 8.1212 4.57614 8.17767 4.59329 8.23125C4.61043 8.28483 4.63812 8.33444 4.67473 8.37717C4.71133 8.41989 4.75611 8.45486 4.80643 8.48002C4.85675 8.50518 4.91159 8.52002 4.96773 8.52367C5.02387 8.52732 5.08017 8.5197 5.13332 8.50127C5.18648 8.48283 5.23541 8.45396 5.27723 8.41633C5.31906 8.37871 5.35294 8.3331 5.37687 8.28219L5.82301 7.39062H8.11414L8.55992 8.28219C8.60994 8.38228 8.69768 8.4584 8.80383 8.49381C8.90998 8.52921 9.02584 8.521 9.12594 8.47098C9.22603 8.42095 9.30215 8.33322 9.33756 8.22707C9.37296 8.12092 9.36475 8.00505 9.31473 7.90496ZM6.24488 6.54688L6.96875 5.09949L7.69227 6.54688H6.24488Z" fill="#7D23E0"/>
</g>
<defs>
<clipPath id="clip0_63_765">
<rect width="9" height="9" fill="white" transform="translate(0.5 0.5)"/>
</clipPath>
</defs>
</svg>
